# xmcd
# 
# Track frame offsets:
#     182
#     20907
#     42227
#     58617
#     76147
#     100410
#     113880
#     131007
#     154927
#     177535
#     194577
# 
# Disc length: 2799
# 
# Revision: 4
# Processed by: cddbd v1.5.2PL0 Copyright (c) Steve Scherf et al.
# Submitted via: fre:ac v1.1beta1pre5
# 
DISCID=9b0aed0b
DTITLE=Corey Stevens - Blue Drops of Rain
DYEAR=1995
DGENRE=Blues
TTITLE0=Gone Too Long
TTITLE1=Blue Drops of Rain
TTITLE2=Crosscut Saw
TTITLE3=I Got A Rich Man's Woman
TTITLE4=It's Over
TTITLE5=Back In Time
TTITLE6=I'll Play The blues
TTITLE7=Lenny
TTITLE8=The Brothers
TTITLE9=Headshrinker
TTITLE10=Goin' Crazy
EXTD=
EXTT0=
EXTT1=
EXTT2=
EXTT3=
EXTT4=
EXTT5=
EXTT6=
EXTT7=
EXTT8=
EXTT9=
EXTT10=
PLAYORDER=
